<?xml version="1.0" encoding="UTF-8"?>
<svg version="1.1" xmlns="http://www.w3.org/2000/svg" width="500" height="500">
<path d="M0 0 C0.92908173 0.00087616 1.85816345 0.00175232 2.81539917 0.00265503 C17.42564765 0.04804847 31.3896899 0.84618367 45.625 4.375 C46.64787109 4.62169434 47.67074219 4.86838867 48.72460938 5.12255859 C94.32188597 16.35637039 136.69932411 42.01266865 165.625 79.375 C166.05425781 79.92784668 166.48351562 80.48069336 166.92578125 81.05029297 C201.27195167 125.60380871 216.43837262 182.28905504 209.85571289 238.17651367 C209.25985831 242.27797255 208.49681646 246.32375584 207.625 250.375 C207.32698486 251.78749023 207.32698486 251.78749023 207.02294922 253.22851562 C199.24174949 289.10946359 183.33449639 322.06450399 158.625 349.375 C157.83351563 350.27476562 157.04203125 351.17453125 156.2265625 352.1015625 C154.05505358 354.55470056 151.85263103 356.97281579 149.625 359.375 C149.0165625 360.03757812 148.408125 360.70015625 147.78125 361.3828125 C142.1558779 367.27038415 135.78439402 372.17375462 129.31640625 377.08935547 C127.82971315 378.21939673 126.35164436 379.36076538 124.875 380.50390625 C100.8748203 398.61379794 72.16336599 411.08748888 42.7265625 416.953125 C41.34596384 417.2302712 39.96811037 417.52153692 38.59375 417.828125 C12.27456802 423.61036953 -18.26310059 422.30487154 -44.375 416.375 C-45.21144043 416.19308105 -46.04788086 416.01116211 -46.90966797 415.82373047 C-65.62163744 411.67005186 -83.57652001 404.55794614 -100.375 395.375 C-101.05481934 395.00681152 -101.73463867 394.63862305 -102.43505859 394.25927734 C-118.68922056 385.36222274 -133.06617336 374.23204186 -146.375 361.375 C-147.29667969 360.50488281 -148.21835938 359.63476562 -149.16796875 358.73828125 C-155.7971325 352.33351796 -161.53310102 345.50632544 -167.05175781 338.13818359 C-168.30948034 336.46230314 -169.5873063 334.80350494 -170.8671875 333.14453125 C-185.03314548 314.42694396 -197.64707169 290.56790816 -202.375 267.375 C-202.045 266.385 -201.715 265.395 -201.375 264.375 C-200.38242188 264.91769531 -199.38984375 265.46039063 -198.3671875 266.01953125 C-180.38114481 275.60375841 -161.10950483 278.68432118 -141.3359375 272.76953125 C-130.97947441 269.31135068 -120.963033 264.36240315 -113.375 256.375 C-111.00979587 258.50832137 -109.83146742 260.29242568 -108.6875 263.25 C-104.23054172 273.67216479 -97.63383541 282.74627591 -90.375 291.375 C-89.93542969 291.93703125 -89.49585938 292.4990625 -89.04296875 293.078125 C-72.36953778 314.26843861 -42.42084431 327.52744505 -16.26171875 331.06640625 C-15.30910156 331.16824219 -14.35648438 331.27007812 -13.375 331.375 C-12.26769531 331.50777344 -11.16039062 331.64054687 -10.01953125 331.77734375 C11.24207951 333.80551455 33.41239373 329.70175463 52.625 320.375 C53.20701172 320.09285645 53.78902344 319.81071289 54.38867188 319.52001953 C63.5679236 315.00919578 71.66805273 309.837077 79.625 303.375 C80.35203125 302.80136719 81.0790625 302.22773438 81.828125 301.63671875 C87.57336707 296.89802499 92.09788654 291.2602475 96.625 285.375 C97.21023438 284.62863281 97.79546875 283.88226563 98.3984375 283.11328125 C118.15875506 256.53426256 125.5276363 223.34146753 120.9375 190.671875 C117.20834009 168.88030542 107.64757256 148.41901085 93.625 131.375 C93.01785156 130.62734375 92.41070312 129.8796875 91.78515625 129.109375 C71.31052903 104.78124651 39.3354474 91.36054827 8.1875 88.625 C-12.2344607 87.374976 -32.90742003 91.6673519 -51.375 100.375 C-52.79425781 100.99955078 -52.79425781 100.99955078 -54.2421875 101.63671875 C-77.28754692 112.30360262 -93.95610706 130.64193736 -106.375 152.375 C-93.01 152.87 -93.01 152.87 -79.375 153.375 C-79.0965625 159.500625 -79.0965625 159.500625 -78.8125 165.75 C-78.72053345 167.68045166 -78.72053345 167.68045166 -78.62670898 169.64990234 C-78.58360596 170.66004395 -78.54050293 171.67018555 -78.49609375 172.7109375 C-78.42539673 174.26627197 -78.42539673 174.26627197 -78.35327148 175.85302734 C-78.375 178.375 -78.375 178.375 -79.375 180.375 C-79.28144328 182.82130645 -79.12775444 185.24000915 -78.94140625 187.6796875 C-78.07058843 200.94078144 -78.2677571 214.21726745 -78.3125 227.5 C-78.31752743 230.11588456 -78.32208813 232.73177005 -78.32617188 235.34765625 C-78.33707347 241.69012505 -78.3537121 248.03255799 -78.375 254.375 C-82.48624952 255.64592195 -86.16739172 256.62864319 -90.4765625 256.640625 C-91.37890625 256.64320313 -92.28125 256.64578125 -93.2109375 256.6484375 C-94.13132812 256.64070313 -95.05171875 256.63296875 -96 256.625 C-96.928125 256.63273437 -97.85625 256.64046875 -98.8125 256.6484375 C-99.71226562 256.64585937 -100.61203125 256.64328125 -101.5390625 256.640625 C-102.34811035 256.63836914 -103.1571582 256.63611328 -103.99072266 256.63378906 C-106.72259361 256.33727225 -108.85053609 255.43142311 -111.375 254.375 C-111.42139629 245.09100696 -111.45690624 235.807054 -111.47862434 226.5229702 C-111.48904937 222.21172355 -111.50318515 217.90055638 -111.52587891 213.58935547 C-111.54765301 209.42668504 -111.55957826 205.26409094 -111.56475449 201.10136795 C-111.56844205 199.51539535 -111.57564293 197.92942679 -111.58646011 196.34348679 C-111.60103586 194.11740937 -111.60297542 191.89164501 -111.60205078 189.66552734 C-111.606492 188.39977875 -111.61093323 187.13403015 -111.61550903 185.82992554 C-111.375 182.375 -111.375 182.375 -110.23580933 179.10684204 C-109.95174225 178.20533417 -109.66767517 177.30382629 -109.375 176.375 C-110.035 175.385 -110.695 174.395 -111.375 173.375 C-111.60546875 171.5 -111.60546875 171.5 -111.5625 169.375 C-111.55605469 168.58351562 -111.54960937 167.79203125 -111.54296875 166.9765625 C-111.375 164.375 -111.375 164.375 -110.86328125 161.5859375 C-109.83469832 156.24166026 -109.83469832 156.24166026 -111.703125 151.3671875 C-113.81394045 149.45372471 -115.98399443 147.9241022 -118.375 146.375 C-119.20902344 145.77945313 -120.04304688 145.18390625 -120.90234375 144.5703125 C-130.02766798 138.32596435 -140.41239564 134.02407553 -151.375 132.375 C-152.26316406 132.2409375 -153.15132812 132.106875 -154.06640625 131.96875 C-167.03560307 130.44905716 -179.15635274 133.16507578 -191.375 137.375 C-193.37476816 138.04236179 -195.37470298 138.70922506 -197.375 139.375 C-195.46670755 132.32625064 -192.9866693 125.82183677 -189.8125 119.25 C-189.37558838 118.3412915 -188.93867676 117.43258301 -188.48852539 116.49633789 C-164.31600643 67.18613047 -120.25726258 29.28867758 -68.66357422 11.24291992 C-57.38726742 7.40514049 -46.12787927 4.32413337 -34.375 2.375 C-33.40127441 2.19984863 -32.42754883 2.02469727 -31.42431641 1.84423828 C-20.95141349 0.12306482 -10.59224114 -0.02441234 0 0 Z M-101.375 176.375 C-101.375 176.705 -101.375 177.035 -101.375 177.375 C-95.435 177.375 -89.495 177.375 -83.375 177.375 C-83.375 177.045 -83.375 176.715 -83.375 176.375 C-89.315 176.375 -95.255 176.375 -101.375 176.375 Z " fill="#FD3131" transform="translate(249.375,39.625)"/>
<path d="M0 0 C0.9957605 0.0131575 1.991521 0.026315 3.01745605 0.03987122 C4.14623169 0.05035995 5.27500732 0.06084869 6.43798828 0.07165527 C7.66497437 0.09444046 8.89196045 0.11722565 10.15612793 0.14070129 C11.4169519 0.15861221 12.67777588 0.17652313 13.97680664 0.19497681 C16.6536761 0.23625909 19.33007841 0.28189312 22.00671387 0.33430481 C25.41118486 0.40009754 28.81552044 0.44405133 32.22040558 0.48156261 C35.49087516 0.52129838 38.76094865 0.58219397 42.03112793 0.64070129 C43.84731628 0.65969734 43.84731628 0.65969734 45.70019531 0.67907715 C56.36016653 0.92155642 65.80146134 2.45351976 73.62487793 10.22273254 C77.11528713 14.89684574 78.76644216 19.53625392 78.72253418 25.33210754 C78.7177002 26.46325989 78.7177002 26.46325989 78.71276855 27.61726379 C78.7002002 28.78322083 78.7002002 28.78322083 78.68737793 29.97273254 C78.68286621 30.76550598 78.67835449 31.55827942 78.67370605 32.37507629 C78.66196358 34.32432763 78.64402939 36.27353992 78.62487793 38.22273254 C77.96487793 38.22273254 77.30487793 38.22273254 76.62487793 38.22273254 C76.35675293 38.82085754 76.08862793 39.41898254 75.81237793 40.03523254 C74.62487793 42.22273254 74.62487793 42.22273254 73.06237793 43.66023254 C71.17224672 45.71472299 70.99245323 47.50267532 70.62487793 50.22273254 C71.34675293 50.69710754 72.06862793 51.17148254 72.81237793 51.66023254 C77.88972635 56.28626111 81.18304806 62.3007312 81.62487793 69.22273254 C81.70737793 70.41898254 81.78987793 71.61523254 81.87487793 72.84773254 C81.83109119 78.47432857 80.13170441 83.84120941 78.62487793 89.22273254 C77.96487793 89.22273254 77.30487793 89.22273254 76.62487793 89.22273254 C76.41862793 89.77960754 76.21237793 90.33648254 75.99987793 90.91023254 C72.70550452 96.45076964 67.53499145 99.11197771 61.62487793 101.22273254 C47.36681501 104.0661626 32.22642455 103.34248082 17.7461853 103.39897156 C15.9575339 103.40647656 14.16889299 103.41715579 12.38027954 103.43101501 C9.8354141 103.44889863 7.29089273 103.45304274 4.74597168 103.45320129 C3.97175873 103.46034149 3.19754578 103.46748169 2.39987183 103.47483826 C-1.40073279 103.45876274 -3.13385353 103.38357824 -6.37512207 101.22273254 C-7.28918457 98.06257629 -7.28918457 98.06257629 -8.00012207 94.16023254 C-8.2398877 92.89050598 -8.47965332 91.62077942 -8.72668457 90.31257629 C-9.96237135 82.88546667 -10.54196263 75.52547969 -10.61340332 68.00007629 C-10.6230159 67.14470276 -10.63262848 66.28932922 -10.64253235 65.40803528 C-10.66710865 62.65872662 -10.67977441 59.90963805 -10.68762207 57.16023254 C-10.69090515 56.22398041 -10.69418823 55.28772827 -10.6975708 54.32310486 C-10.71432864 39.55834608 -9.70228197 25.65161771 -6.37512207 11.22273254 C-6.12327148 9.96613831 -6.12327148 9.96613831 -5.86633301 8.68415833 C-5.70165527 7.87317688 -5.53697754 7.06219543 -5.36730957 6.22663879 C-5.2240625 5.50419983 -5.08081543 4.78176086 -4.93322754 4.03742981 C-4.03962674 1.13185906 -3.00549903 0.2818476 0 0 Z M20.66394043 27.58992004 C19.52880818 30.4661574 19.06330831 32.17421177 19.62487793 35.22273254 C22.02841286 37.67328038 23.42201554 38.20000218 26.86706543 38.58601379 C28.06589355 38.56925598 29.26472168 38.55249817 30.49987793 38.53523254 C32.29038574 38.52943176 32.29038574 38.52943176 34.11706543 38.52351379 C37.59039088 38.22568967 40.38185945 37.46737725 43.62487793 36.22273254 C43.95487793 33.58273254 44.28487793 30.94273254 44.62487793 28.22273254 C39.72042614 25.32779711 35.97803349 24.70230616 30.43737793 24.72273254 C29.72645996 24.69437317 29.01554199 24.66601379 28.28308105 24.63679504 C24.5980644 24.62292857 23.06915919 24.68640896 20.66394043 27.58992004 Z M22.62487793 62.22273254 C19.77137329 69.07822853 19.77137329 69.07822853 20.62487793 76.22273254 C20.95487793 76.88273254 21.28487793 77.54273254 21.62487793 78.22273254 C24.87480239 78.28092678 28.12459228 78.3163937 31.37487793 78.34773254 C32.29526855 78.36449036 33.21565918 78.38124817 34.16394043 78.39851379 C35.05339355 78.40495911 35.94284668 78.41140442 36.85925293 78.41804504 C38.08466797 78.43375549 38.08466797 78.43375549 39.33483887 78.44978333 C41.88310212 78.19713036 43.46607612 77.58407989 45.62487793 76.22273254 C46.93645309 73.59958223 46.52137781 71.99239819 46.18737793 69.09773254 C46.08554199 68.18765442 45.98370605 67.27757629 45.87878418 66.33992004 C45.75310059 65.29191223 45.75310059 65.29191223 45.62487793 64.22273254 C37.67331171 60.40598076 31.23226267 61.2701366 22.62487793 62.22273254 Z " fill="#5C17E9" transform="translate(50.3751220703125,192.7772674560547)"/>
<path d="M0 0 C1.21042969 -0.0299707 1.21042969 -0.0299707 2.4453125 -0.06054688 C9.1136521 -0.05513426 13.55534951 1.61784951 18.375 6.4375 C18.705 4.7875 19.035 3.1375 19.375 1.4375 C27.955 1.4375 36.535 1.4375 45.375 1.4375 C45.98812923 6.9556631 46.50175504 11.91072357 46.52026367 17.375 C46.52664352 18.66664063 46.53302338 19.95828125 46.53959656 21.2890625 C46.54112534 22.67187461 46.54223924 24.05468724 46.54296875 25.4375 C46.54618958 26.88281282 46.54955424 28.32812533 46.55305481 29.7734375 C46.55901068 32.78907019 46.56089825 35.80467436 46.56030273 38.8203125 C46.56020101 42.66316193 46.57388008 46.50582706 46.59107494 50.34863281 C46.60224919 53.32910994 46.60422033 56.30954314 46.60369301 59.29003906 C46.60486392 60.70606118 46.60923508 62.12208477 46.61702538 63.53808594 C46.67086492 74.32874861 46.29104782 83.16902508 40.375 92.4375 C39.715 92.4375 39.055 92.4375 38.375 92.4375 C37.88 93.9225 37.88 93.9225 37.375 95.4375 C23.94712781 105.27777275 6.11525764 106.29953877 -9.90576172 104.12841797 C-19.25690005 102.44327612 -27.54370481 99.26711818 -33.125 91.25 C-35.53030639 86.56598229 -34.87803319 81.56142205 -34.625 76.4375 C-30.005 76.1075 -25.385 75.7775 -20.625 75.4375 C-20.625 75.1075 -20.625 74.7775 -20.625 74.4375 C-18.15 73.9425 -18.15 73.9425 -15.625 73.4375 C-17.52009971 71.35186354 -17.52009971 71.35186354 -19.9375 70.1875 C-23.220762 68.04956196 -25.19279094 65.49335241 -27.625 62.4375 C-28.7078125 61.385625 -28.7078125 61.385625 -29.8125 60.3125 C-36.41092038 53.48654789 -36.21597292 42.5203994 -36.26538086 33.59716797 C-35.9933069 23.31223351 -32.44054714 15.57521402 -25.40625 8.0703125 C-17.96003682 1.75151893 -9.57416428 -0.0849321 0 0 Z M-2.625 25.4375 C-6.49180258 31.57104893 -6.55070794 38.35855696 -5.625 45.4375 C-4.43026271 48.79241885 -3.71373429 49.275386 -0.625 51.4375 C3.74283263 52.2560276 7.59657875 52.35167092 11.6015625 50.29296875 C15.58357848 46.1267626 15.32309754 38.73618985 15.41015625 33.203125 C15.02627922 28.97111483 13.28194937 26.43253875 10.375 23.4375 C5.67127475 21.08563737 1.26903406 22.17493092 -2.625 25.4375 Z M4.47265625 73 C1.44864944 73.63070533 -1.5460545 73.4375 -4.625 73.4375 C-6.91430236 75.31888759 -6.91430236 75.31888759 -7 78.375 C-6.9122853 81.44389832 -6.9122853 81.44389832 -5.0625 83.25 C-0.06585527 85.68426282 3.96608117 85.77872912 9.1875 84.125 C11.96819153 83.14386099 13.25848262 82.55401738 15.375 80.4375 C15.71716235 75.78555286 15.71716235 75.78555286 14.375 71.4375 C10.73031954 71.4375 7.95666611 72.06224781 4.47265625 73 Z " fill="#5C18E7" transform="translate(212.625,217.5625)"/>
<path d="M0 0 C1.25159912 0.00523682 2.50319824 0.01047363 3.79272461 0.01586914 C4.78942421 0.01799156 4.78942421 0.01799156 5.80625916 0.02015686 C7.93590735 0.02577021 10.06545175 0.03832485 12.19506836 0.05102539 C13.63582205 0.05603868 15.07657739 0.06060188 16.51733398 0.06469727 C20.05577938 0.07574394 23.59416375 0.09301747 27.13256836 0.11352539 C27.32878882 4.23815955 27.51307052 8.36324112 27.69506836 12.48852539 C27.77917969 14.25196289 27.77917969 14.25196289 27.86499023 16.05102539 C27.91333008 17.17250977 27.96166992 18.29399414 28.01147461 19.44946289 C28.05860596 20.48635254 28.1057373 21.52324219 28.15429688 22.59155273 C28.13256836 25.11352539 28.13256836 25.11352539 27.13256836 27.11352539 C27.22612508 29.55983184 27.37981392 31.97853454 27.56616211 34.41821289 C28.43697993 47.67930683 28.23981126 60.95579284 28.19506836 74.23852539 C28.19004093 76.85440995 28.18548023 79.47029544 28.18139648 82.08618164 C28.17049489 88.42865044 28.15385626 94.77108338 28.13256836 101.11352539 C24.02131884 102.38444734 20.34017664 103.36716859 16.03100586 103.37915039 C15.12866211 103.38172852 14.22631836 103.38430664 13.29663086 103.38696289 C12.37624023 103.37922852 11.45584961 103.37149414 10.50756836 103.36352539 C9.57944336 103.37125977 8.65131836 103.37899414 7.69506836 103.38696289 C6.79530273 103.38438477 5.89553711 103.38180664 4.96850586 103.37915039 C4.15945801 103.37689453 3.35041016 103.37463867 2.5168457 103.37231445 C-0.21502525 103.07579764 -2.34296773 102.1699485 -4.86743164 101.11352539 C-4.91382793 91.82953235 -4.94933788 82.54557939 -4.97105598 73.26149559 C-4.98148101 68.95024894 -4.99561679 64.63908177 -5.01831055 60.32788086 C-5.04008465 56.16521043 -5.0520099 52.00261634 -5.05718613 47.83989334 C-5.06087369 46.25392074 -5.06807457 44.66795218 -5.07889175 43.08201218 C-5.0934675 40.85593476 -5.09540706 38.6301704 -5.09448242 36.40405273 C-5.09892365 35.13830414 -5.10336487 33.87255554 -5.10794067 32.56845093 C-4.86743164 29.11352539 -4.86743164 29.11352539 -3.72824097 25.84536743 C-3.44417389 24.94385956 -3.16010681 24.04235168 -2.86743164 23.11352539 C-3.52743164 22.12352539 -4.18743164 21.13352539 -4.86743164 20.11352539 C-5.60974299 13.96114829 -4.84698654 7.20853366 -3.86743164 1.11352539 C-2.86743164 0.11352539 -2.86743164 0.11352539 0 0 Z M5.13256836 23.11352539 C5.13256836 23.44352539 5.13256836 23.77352539 5.13256836 24.11352539 C11.07256836 24.11352539 17.01256836 24.11352539 23.13256836 24.11352539 C23.13256836 23.78352539 23.13256836 23.45352539 23.13256836 23.11352539 C17.19256836 23.11352539 11.25256836 23.11352539 5.13256836 23.11352539 Z " fill="#5C17E9" transform="translate(142.867431640625,192.886474609375)"/>
<path d="M0 0 C0.66 0.33 1.32 0.66 2 1 C2 1.99 2 2.98 2 4 C2.99 4.33 3.98 4.66 5 5 C5 5.66 5 6.32 5 7 C6.32 7 7.64 7 9 7 C9 7.66 9 8.32 9 9 C12.20782086 9.95376567 15.08187396 10.11621181 18.421875 10.09765625 C19.44667969 10.09443359 20.47148437 10.09121094 21.52734375 10.08789062 C23.12255859 10.07532227 23.12255859 10.07532227 24.75 10.0625 C25.82894531 10.05798828 26.90789062 10.05347656 28.01953125 10.04882812 C30.67974383 10.03705727 33.33984365 10.02061399 36 10 C36.33 9.01 36.66 8.02 37 7 C38.98 7.33 40.96 7.66 43 8 C43.495 12.95 43.495 12.95 44 18 C44.99 17.01 45.98 16.02 47 15 C47 18.96 47 22.92 47 27 C46.34 27 45.68 27 45 27 C43.375 24.5 43.375 24.5 42 22 C41.01 22.99 40.02 23.98 39 25 C38.01 24.67 37.02 24.34 36 24 C36.66 23.690625 37.32 23.38125 38 23.0625 C40.44176498 20.54442986 40.27142406 19.71892628 40.25 16.3125 C40.18576167 14.8740202 40.10836453 13.43583001 40 12 C39.21496094 12.2165625 38.42992187 12.433125 37.62109375 12.65625 C27.98716363 15.209537 27.98716363 15.209537 23.875 15 C22.92625 15 21.9775 15 21 15 C20.01 16.485 20.01 16.485 19 18 C14.38 17.34 9.76 16.68 5 16 C5 15.67 5 15.34 5 15 C6.65 14.67 8.3 14.34 10 14 C8.11298256 11.90897644 8.11298256 11.90897644 5.6875 10.8125 C2.08882631 8.38548751 0.38599209 5.61307374 -2 2 C-1.34 2 -0.68 2 0 2 C0 1.34 0 0.68 0 0 Z " fill="#4E2FCE" transform="translate(187,277)"/>
<path d="M0 0 C1.25159912 0.00523682 2.50319824 0.01047363 3.79272461 0.01586914 C4.78942421 0.01799156 4.78942421 0.01799156 5.80625916 0.02015686 C7.93590735 0.02577021 10.06545175 0.03832485 12.19506836 0.05102539 C13.63582205 0.05603868 15.07657739 0.06060188 16.51733398 0.06469727 C20.05581794 0.07489463 23.59407649 0.09446709 27.13256836 0.11352539 C27.62756836 12.48852539 27.62756836 12.48852539 28.13256836 25.11352539 C26.81256836 25.11352539 25.49256836 25.11352539 24.13256836 25.11352539 C24.13256836 24.45352539 24.13256836 23.79352539 24.13256836 23.11352539 C20.73578033 23.19473245 17.34074454 23.30754558 13.94506836 23.42602539 C12.98536133 23.44858398 12.0256543 23.47114258 11.03686523 23.49438477 C4.1130315 23.75422014 4.1130315 23.75422014 -1.86743164 27.11352539 C-6.14743444 18.73185325 -5.33719984 10.25874971 -3.86743164 1.11352539 C-2.86743164 0.11352539 -2.86743164 0.11352539 0 0 Z M-0.86743164 2.11352539 C-3.32341241 5.79749655 -3.09458484 8.56076347 -2.99243164 12.80102539 C-2.95118164 15.21415039 -2.90993164 17.62727539 -2.86743164 20.11352539 C6.70256836 20.11352539 16.27256836 20.11352539 26.13256836 20.11352539 C26.13256836 14.17352539 26.13256836 8.23352539 26.13256836 2.11352539 C21.6738777 2.03294664 17.2166278 1.9732231 12.75756836 1.92602539 C11.48655273 1.90088867 10.21553711 1.87575195 8.90600586 1.84985352 C7.69428711 1.84018555 6.48256836 1.83051758 5.23413086 1.82055664 C3.55311279 1.79699097 3.55311279 1.79699097 1.83813477 1.77294922 C0.94529785 1.88533936 0.05246094 1.99772949 -0.86743164 2.11352539 Z " fill="#5C2FD4" transform="translate(142.867431640625,192.886474609375)"/>
<path d="M0 0 C0.99 0.495 0.99 0.495 2 1 C2.34375 3.00390625 2.34375 3.00390625 2.5 5.5625 C2.87082744 10.24841039 3.74326085 14.47573904 5 19 C6.216875 18.95875 7.43375 18.9175 8.6875 18.875 C12.41204997 18.863575 15.7859227 19.29163391 19.4375 20 C29.34030942 21.57778557 39.31265092 21.21242136 49.3125 21.125 C51.32486532 21.11494709 53.33723552 21.10582534 55.34960938 21.09765625 C60.2331954 21.07583286 65.11654257 21.04143115 70 21 C70 20.34 70 19.68 70 19 C73.96 18.505 73.96 18.505 78 18 C64.30737362 27.12841758 43.02128728 24.11420954 27.12130737 24.17623901 C25.33265597 24.18374402 23.54401506 24.19442325 21.75540161 24.20828247 C19.21053617 24.22616609 16.6660148 24.23031019 14.12109375 24.23046875 C13.3468808 24.23760895 12.57266785 24.24474915 11.7749939 24.25210571 C7.97438928 24.2360302 6.24126854 24.1608457 3 22 C2.28436243 19.56447627 1.75183724 17.29727622 1.3125 14.8125 C1.06113281 13.51957031 0.80976562 12.22664063 0.55078125 10.89453125 C0.02815681 7.19909457 -0.10147443 3.72556135 0 0 Z " fill="#572FB6" transform="translate(41,272)"/>
<path d="M0 0 C8.415 3.96 8.415 3.96 17 8 C15.68 8.33 14.36 8.66 13 9 C13 10.65 13 12.3 13 14 C12.34 14 11.68 14 11 14 C11.185625 15.27875 11.37125 16.5575 11.5625 17.875 C12.125 21.75 12.125 21.75 11 24 C11.66 24 12.32 24 13 24 C12.67 26.97 12.34 29.94 12 33 C9.6741295 30.13996421 8.25613915 27.49948294 6.9921875 24.04296875 C6.64542969 23.09486328 6.29867187 22.14675781 5.94140625 21.16992188 C5.41353516 19.69362305 5.41353516 19.69362305 4.875 18.1875 C4.51535156 17.21490234 4.15570313 16.24230469 3.78515625 15.24023438 C3.44097656 14.28826172 3.09679688 13.33628906 2.7421875 12.35546875 C2.4313623 11.49590576 2.12053711 10.63634277 1.80029297 9.75073242 C1 7 1 7 0 0 Z " fill="#EC3738" transform="translate(47,304)"/>
<path d="M0 0 C5.28 0 10.56 0 16 0 C16 0.33 16 0.66 16 1 C10.06 1.495 10.06 1.495 4 2 C4 2.66 4 3.32 4 4 C3.814375 4.78375 3.62875 5.5675 3.4375 6.375 C2.97035208 9.17788754 2.86841802 10.4135269 4 13 C5.6459651 14.68711423 7.31237149 16.3545622 9 18 C9.33 18.99 9.66 19.98 10 21 C11.051875 21.144375 12.10375 21.28875 13.1875 21.4375 C16.15460549 21.87526966 19.06794366 22.37804866 22 23 C22 23.66 22 24.32 22 25 C25.81211903 25.1958691 29.62470534 25.38029565 33.4375 25.5625 C34.52611328 25.61857422 35.61472656 25.67464844 36.73632812 25.73242188 C37.77080078 25.78076172 38.80527344 25.82910156 39.87109375 25.87890625 C40.82943115 25.9260376 41.78776855 25.97316895 42.77514648 26.02172852 C44.97347702 26.25991218 44.97347702 26.25991218 46 25 C47.86673444 24.62311986 49.74417069 24.2986925 51.625 24 C52.70523438 23.82726562 53.78546875 23.65453125 54.8984375 23.4765625 C58.26286228 22.95961058 61.62732872 22.45990972 65 22 C64 24 64 24 61.140625 25.0703125 C44.69036111 29.77721129 24.99085612 30.89270195 9.4453125 22.64453125 C5.12262754 19.69148823 1.49905061 16.11214694 0 11 C-0.30306692 7.26217464 -0.18579305 3.76230927 0 0 Z " fill="#4F1ED3" transform="translate(178,294)"/>
<path d="M0 0 C0.33 0 0.66 0 1 0 C1.33 17.82 1.66 35.64 2 54 C-5.88868833 56.25391095 -5.88868833 56.25391095 -10.1015625 56.265625 C-11.00390625 56.26820313 -11.90625 56.27078125 -12.8359375 56.2734375 C-13.75632813 56.26570313 -14.67671875 56.25796875 -15.625 56.25 C-16.553125 56.25773437 -17.48125 56.26546875 -18.4375 56.2734375 C-23.04301806 56.26024117 -26.83276085 56.21549423 -31 54 C-31 51.03 -31 48.06 -31 45 C-30.34 45 -29.68 45 -29 45 C-28.67 44.34 -28.34 43.68 -28 43 C-28 45.64 -28 48.28 -28 51 C-14.14 51.495 -14.14 51.495 0 52 C0 34.84 0 17.68 0 0 Z " fill="#561ED1" transform="translate(169,240)"/>
<path d="M0 0 C3.68722927 -0.11701204 7.37397542 -0.18752045 11.0625 -0.25 C12.10083984 -0.28351563 13.13917969 -0.31703125 14.20898438 -0.3515625 C20.81409219 -0.43543688 24.56841743 0.22025329 30 4 C31.485 4.495 31.485 4.495 33 5 C32.814375 5.9075 32.62875 6.815 32.4375 7.75 C32.04265379 10.68314324 32.05308428 12.2644657 33 15 C30.6875 17.0625 30.6875 17.0625 28 19 C27.01 18.67 26.02 18.34 25 18 C25.50144531 17.61199219 26.00289062 17.22398437 26.51953125 16.82421875 C28.24891882 15.07024209 28.24891882 15.07024209 28.07421875 12.51953125 C27.94660156 11.62621094 27.81898437 10.73289062 27.6875 9.8125 C27.56761719 8.91144531 27.44773437 8.01039063 27.32421875 7.08203125 C27.21722656 6.39496094 27.11023438 5.70789063 27 5 C21.91627302 2.89915383 17.96622593 2.89206818 12.625 3.375 C11.52091797 3.46007812 11.52091797 3.46007812 10.39453125 3.546875 C8.59547532 3.68706118 6.79758061 3.84201786 5 4 C4.649375 5.175625 4.29875 6.35125 3.9375 7.5625 C3.74027344 8.22378906 3.54304688 8.88507813 3.33984375 9.56640625 C2.77908925 12.76176679 2.77908925 12.76176679 4 19 C10.6 19 17.2 19 24 19 C24 19.33 24 19.66 24 20 C20.5625177 20.02901394 17.12506688 20.04680335 13.6875 20.0625 C12.71103516 20.07087891 11.73457031 20.07925781 10.72851562 20.08789062 C9.79072266 20.09111328 8.85292969 20.09433594 7.88671875 20.09765625 C7.02264404 20.10289307 6.15856934 20.10812988 5.26831055 20.11352539 C3 20 3 20 0 19 C-1.67036779 15.3124121 -0.88547711 11.17769868 -0.5625 7.25 C-0.48418945 6.20392578 -0.48418945 6.20392578 -0.40429688 5.13671875 C-0.27525928 3.42403797 -0.13840386 1.71194934 0 0 Z " fill="#5427C8" transform="translate(68,252)"/>
<path d="M0 0 C2 1 2 1 2.61790466 2.7243042 C3.05487068 5.3268006 3.11969348 7.7711912 3.11352539 10.41113281 C3.11344986 11.49195129 3.11337433 12.57276978 3.11329651 13.68634033 C3.10813522 14.84687927 3.10297394 16.00741821 3.09765625 17.203125 C3.0962413 18.39605164 3.09482635 19.58897827 3.09336853 20.8180542 C3.08777038 24.62872829 3.07521819 28.43934366 3.0625 32.25 C3.05748476 34.83333248 3.0529219 37.41666589 3.04882812 40 C3.03780155 46.33335337 3.02106524 52.66667249 3 59 C2.01 58.67 1.02 58.34 0 58 C0 38.86 0 19.72 0 0 Z " fill="#5B2BCD" transform="translate(138,223)"/>
<path d="M0 0 C16.11560694 1.15462428 16.11560694 1.15462428 21 2 C21.33 2.66 21.66 3.32 22 4 C24.02463255 4.65213292 24.02463255 4.65213292 26 5 C26 7.31 26 9.62 26 12 C25.67 10.68 25.34 9.36 25 8 C24.38125 7.855625 23.7625 7.71125 23.125 7.5625 C21 7 21 7 19 6 C16.28239892 5.92818179 13.59140612 5.90700494 10.875 5.9375 C9.74384766 5.94426758 9.74384766 5.94426758 8.58984375 5.95117188 C6.72652873 5.96296501 4.86325445 5.98090058 3 6 C1.26497738 9.22316456 0.7086102 11.30906254 1 15 C1.33 15.66 1.66 16.32 2 17 C1.01 17 0.02 17 -1 17 C-1 4.625 -1 4.625 0 0 Z " fill="#5623DB" transform="translate(70,213)"/>
<path d="M0 0 C1.53888382 0.03330917 1.53888382 0.03330917 3.1088562 0.06729126 C4.85043503 0.09754898 4.85043503 0.09754898 6.62719727 0.12841797 C8.51473221 0.17671249 8.51473221 0.17671249 10.44039917 0.22598267 C11.72493988 0.25100861 13.00948059 0.27603455 14.33294678 0.30181885 C17.74937184 0.36849376 21.16541068 0.44738064 24.58151245 0.52877808 C28.06687588 0.60967528 31.55246599 0.67906953 35.03805542 0.74942017 C41.87816592 0.88917814 48.71793732 1.04183329 55.55758667 1.20254517 C55.55758667 1.53254517 55.55758667 1.86254517 55.55758667 2.20254517 C54.52351685 2.2223645 53.48944702 2.24218384 52.42404175 2.26260376 C48.57533048 2.33886744 44.72698707 2.4275523 40.87863159 2.51992798 C39.21529419 2.55813213 37.55187659 2.5929998 35.88839722 2.62442017 C33.49267987 2.67025751 31.09751058 2.72821984 28.70211792 2.78848267 C27.96234207 2.80003387 27.22256622 2.81158508 26.46037292 2.82348633 C22.37419443 2.93941587 19.27879431 3.54593346 15.55758667 5.20254517 C13.24508667 4.82754517 13.24508667 4.82754517 11.55758667 4.20254517 C11.55758667 3.87254517 11.55758667 3.54254517 11.55758667 3.20254517 C9.24758667 3.20254517 6.93758667 3.20254517 4.55758667 3.20254517 C4.28946167 3.84192017 4.02133667 4.48129517 3.74508667 5.14004517 C2.55758667 7.20254517 2.55758667 7.20254517 -0.44241333 8.20254517 C-1.43241333 7.54254517 -2.42241333 6.88254517 -3.44241333 6.20254517 C-3.44241333 7.52254517 -3.44241333 8.84254517 -3.44241333 10.20254517 C-4.10241333 10.20254517 -4.76241333 10.20254517 -5.44241333 10.20254517 C-4.49111286 0.37244032 -4.49111286 0.37244032 0 0 Z " fill="#581DD1" transform="translate(50.442413330078125,192.79745483398438)"/>
<path d="M0 0 C2.97 0.495 2.97 0.495 6 1 C6.33 4.3 6.66 7.6 7 11 C7.99 10.01 8.98 9.02 10 8 C10 11.96 10 15.92 10 20 C9.34 20 8.68 20 8 20 C6.375 17.5 6.375 17.5 5 15 C4.01 15.99 3.02 16.98 2 18 C1.01 17.67 0.02 17.34 -1 17 C-0.01 16.5359375 -0.01 16.5359375 1 16.0625 C3.44176498 13.54442986 3.27142406 12.71892628 3.25 9.3125 C3.18576167 7.8740202 3.10836453 6.43583001 3 5 C2.175 5.350625 1.35 5.70125 0.5 6.0625 C-3.83386892 7.22335775 -6.60909969 6.75705178 -11 6 C-7.99382731 2.99382731 -5.17618402 3.40414684 -1 3 C-0.67 2.01 -0.34 1.02 0 0 Z " fill="#5527D0" transform="translate(224,284)"/>
<path d="M0 0 C-8.82508932 4.22069489 -17.65316996 5.37013753 -27.375 5.3125 C-28.28531982 5.31121094 -29.19563965 5.30992187 -30.13354492 5.30859375 C-37.13019129 5.20904165 -43.3575587 4.31041436 -50 2 C-50 1.67 -50 1.34 -50 1 C-47.8125 1.14583333 -45.625 1.29166667 -43.4375 1.4375 C-42.43759033 1.50300049 -42.43759033 1.50300049 -41.41748047 1.56982422 C-37.84332824 1.80497682 -34.27076225 2.0521245 -30.69921875 2.32421875 C-30.01609619 2.37457275 -29.33297363 2.42492676 -28.62915039 2.47680664 C-26.70303871 2.61922957 -24.77729054 2.76654296 -22.8515625 2.9140625 C-21.44003906 2.95660156 -21.44003906 2.95660156 -20 3 C-19.67 2.67 -19.34 2.34 -19 2 C-17.06989058 1.62624205 -15.13033152 1.30070427 -13.1875 1 C-8.95690291 0.35926085 -8.95690291 0.35926085 -4.80078125 -0.625 C-3 -1 -3 -1 0 0 Z " fill="#552EC8" transform="translate(243,317)"/>
<path d="M0 0 C7.51253482 0.90668524 7.51253482 0.90668524 10.734375 1.5234375 C14.72263772 2.1054567 18.59995294 2.19091178 22.625 2.1875 C23.80618408 2.1884668 23.80618408 2.1884668 25.01123047 2.18945312 C31.47864371 2.13143759 37.67583955 1.38883524 44 0 C43.67 1.65 43.34 3.3 43 5 C37.50074579 5.04940929 32.00162058 5.08572395 26.50219727 5.10986328 C24.63108062 5.11992567 22.75997972 5.13357691 20.88891602 5.15087891 C18.20064409 5.17511684 15.51257994 5.18648063 12.82421875 5.1953125 C11.98662521 5.20563507 11.14903168 5.21595764 10.28605652 5.22659302 C4.34161512 5.22774341 4.34161512 5.22774341 1 3 C0.67 2.01 0.34 1.02 0 0 Z " fill="#E93B3B" transform="translate(64,313)"/>
<path d="M0 0 C4.29575399 3.71524669 6.97294188 7.29412156 8 13 C8.33586129 18.6632221 8.17385751 24.3335329 8 30 C7.34 30 6.68 30 6 30 C5.731875 30.598125 5.46375 31.19625 5.1875 31.8125 C4 34 4 34 2.4375 35.5 C0.73683989 37.27460185 0.41205818 38.61006256 0 41 C-0.99 40.67 -1.98 40.34 -3 40 C-3 38.68 -3 37.36 -3 36 C-2.01 36 -1.02 36 0 36 C0.33 34.68 0.66 33.36 1 32 C1.66 32 2.32 32 3 32 C3.33 31.01 3.66 30.02 4 29 C4.66 28.67 5.32 28.34 6 28 C5.77529954 18.84345606 5.51387888 11.18140547 1 3 C0.67 2.01 0.34 1.02 0 0 Z " fill="#5223C1" transform="translate(121,201)"/>
<path d="M0 0 C2.31 0 4.62 0 7 0 C7 0.66 7 1.32 7 2 C6.01 2.33 5.02 2.66 4 3 C3.80495542 5.10348074 3.61921504 7.20782585 3.4375 9.3125 C3.33308594 10.48425781 3.22867188 11.65601563 3.12109375 12.86328125 C2.81422566 16.03032575 2.81422566 16.03032575 4 19 C10.6 19 17.2 19 24 19 C24 19.33 24 19.66 24 20 C20.5625177 20.02901394 17.12506688 20.04680335 13.6875 20.0625 C12.71103516 20.07087891 11.73457031 20.07925781 10.72851562 20.08789062 C9.79072266 20.09111328 8.85292969 20.09433594 7.88671875 20.09765625 C7.02264404 20.10289307 6.15856934 20.10812988 5.26831055 20.11352539 C3 20 3 20 0 19 C-1.67036779 15.3124121 -0.88547711 11.17769868 -0.5625 7.25 C-0.48418945 6.20392578 -0.48418945 6.20392578 -0.40429688 5.13671875 C-0.27525928 3.42403797 -0.13840386 1.71194934 0 0 Z " fill="#542CCC" transform="translate(68,252)"/>
<path d="M0 0 C0.99 0.33 1.98 0.66 3 1 C3.91641718 9.71960715 4.33023601 18.42694089 4.625 27.1875 C4.6765625 28.50169922 4.728125 29.81589844 4.78125 31.16992188 C5.00106751 37.58018847 5.07792714 43.6691891 4 50 C3.34 50 2.68 50 2 50 C2.01047363 49.05382812 2.02094727 48.10765625 2.03173828 47.1328125 C2.06861327 43.53942829 2.09113923 39.94605978 2.10986328 36.35253906 C2.1197703 34.81279669 2.13329969 33.27307233 2.15087891 31.73339844 C2.27031052 20.98455327 1.60595153 10.63150778 0 0 Z " fill="#E3403E" transform="translate(369,220)"/>
<path d="M0 0 C3.91211733 1.15585285 6.8745041 2.35534962 10 5 C9.505 5.556875 9.01 6.11375 8.5 6.6875 C6.75245633 9.38162983 6.73781251 10.85375007 7 14 C6.34 14 5.68 14 5 14 C5 13.01 5 12.02 5 11 C4.01 10.67 3.02 10.34 2 10 C0.47839986 6.3962102 0 3.94779314 0 0 Z " fill="#F53332" transform="translate(48,307)"/>
<path d="M0 0 C9.9 0 19.8 0 30 0 C30.33 8.25 30.66 16.5 31 25 C29.68 25 28.36 25 27 25 C27 23.68 27 22.36 27 21 C27.66 21 28.32 21 29 21 C29 14.4 29 7.8 29 1 C19.43 1 9.86 1 0 1 C0 0.67 0 0.34 0 0 Z " fill="#5B32B1" transform="translate(140,193)"/>
<path d="M0 0 C-3.50998007 2.33998671 -6.8899699 3.09024419 -10.9375 4 C-11.69587158 4.17370117 -12.45424316 4.34740234 -13.2355957 4.52636719 C-21.45784485 6.37804514 -29.53794847 8.1486744 -38 8 C-38 7.34 -38 6.68 -38 6 C-37.21753906 5.93941406 -36.43507813 5.87882812 -35.62890625 5.81640625 C-34.61699219 5.73261719 -33.60507812 5.64882813 -32.5625 5.5625 C-31.55316406 5.48128906 -30.54382813 5.40007812 -29.50390625 5.31640625 C-27.06359221 5.26788532 -27.06359221 5.26788532 -26 4 C-24.4824228 3.84025503 -22.96033421 3.72264738 -21.4375 3.625 C-17.95095375 3.32246896 -15.09611684 2.8015117 -11.875 1.4375 C-7.78131428 -0.28351889 -4.41030157 -0.23626616 0 0 Z " fill="#DE3C3B" transform="translate(310,451)"/>
<path d="M0 0 C0.33 0 0.66 0 1 0 C1.16780721 7.67198062 1.32777413 15.3440954 1.48217773 23.01635742 C1.53569002 25.62870016 1.59102613 28.24100618 1.64819336 30.85327148 C1.72984758 34.59871498 1.80503427 38.34423971 1.87890625 42.08984375 C1.90594131 43.26586655 1.93297638 44.44188934 1.96083069 45.65354919 C1.98092697 46.73459427 2.00102325 47.81563934 2.02172852 48.92944336 C2.04171402 49.88652695 2.06169952 50.84361053 2.08229065 51.82969666 C2 54 2 54 1 55 C-0.99958364 55.04080783 -3.00045254 55.04254356 -5 55 C-2 53 -2 53 0 53 C0 35.51 0 18.02 0 0 Z " fill="#5124BA" transform="translate(169,240)"/>
<path d="M0 0 C9.9 0 19.8 0 30 0 C30 0.33 30 0.66 30 1 C21.09 1 12.18 1 3 1 C1.74566542 4.76300374 1.89304578 8.27210909 1.9375 12.1875 C1.94201172 12.93708984 1.94652344 13.68667969 1.95117188 14.45898438 C1.96293646 16.30602383 1.98087135 18.15302213 2 20 C1.34 20.33 0.68 20.66 0 21 C-2.92912751 15.14174498 -0.58570419 5.85704188 0 0 Z " fill="#5C25C4" transform="translate(139,194)"/>
<path d="M0 0 C0 0.33 0 0.66 0 1 C-0.93199219 1.09796875 -1.86398438 1.1959375 -2.82421875 1.296875 C-11.60226401 2.32645361 -19.6118926 4.10988493 -28 7 C-29.99976816 7.66736179 -31.99970298 8.33422506 -34 9 C-33.34 6.69 -32.68 4.38 -32 2 C-31.67 2.99 -31.34 3.98 -31 5 C-30.46375 4.690625 -29.9275 4.38125 -29.375 4.0625 C-26.6015043 2.82172561 -23.99957163 2.4090325 -21 2 C-21 1.67 -21 1.34 -21 1 C-13.96094956 0.06145994 -7.09727428 -0.10808032 0 0 Z " fill="#DB3C44" transform="translate(86,170)"/>
<path d="M0 0 C0.99 0.495 0.99 0.495 2 1 C2.34375 3.00390625 2.34375 3.00390625 2.5 5.5625 C2.87082744 10.24841039 3.74326085 14.47573904 5 19 C5.58007812 18.98839844 6.16015625 18.97679687 6.7578125 18.96484375 C11.2998246 18.91237826 15.52713569 19.08248937 20 20 C20 20.33 20 20.66 20 21 C17.72979256 21.19493195 15.45879711 21.38070418 13.1875 21.5625 C11.92292969 21.66691406 10.65835938 21.77132813 9.35546875 21.87890625 C6 22 6 22 3 21 C0.64472405 14.19586948 0.41390764 7.14535295 0 0 Z " fill="#5721CA" transform="translate(41,272)"/>
<path d="M0 0 C0.99 0.33 1.98 0.66 3 1 C3.6875 3.0625 3.6875 3.0625 4 5 C4.99 4.01 5.98 3.02 7 2 C7 5.96 7 9.92 7 14 C6.34 14 5.68 14 5 14 C3.375 11.5 3.375 11.5 2 9 C1.01 9.99 0.02 10.98 -1 12 C-1.99 11.67 -2.98 11.34 -4 11 C-3.34 10.67 -2.68 10.34 -2 10 C0.17282569 8.23173046 0.17282569 8.23173046 0.265625 6.01953125 C0.25140615 4.01111857 0.13142025 2.00415878 0 0 Z " fill="#581CD6" transform="translate(227,290)"/>
<path d="M0 0 C0 0.33 0 0.66 0 1 C-1.69769531 1.03867188 -1.69769531 1.03867188 -3.4296875 1.078125 C-4.91149743 1.13439626 -6.39326677 1.19174382 -7.875 1.25 C-8.62136719 1.26417969 -9.36773437 1.27835938 -10.13671875 1.29296875 C-12.57138381 1.35986341 -12.57138381 1.35986341 -16 2 C-18.26762822 4.85377755 -18.28218328 7.42567846 -18 11 C-17.67 11.66 -17.34 12.32 -17 13 C-17.99 13 -18.98 13 -20 13 C-20 8.33333333 -20 3.66666667 -20 -1 C-14.7416151 -3.62919245 -5.60161062 -1.08920207 0 0 Z " fill="#5332C1" transform="translate(89,217)"/>
<path d="M0 0 C3.34856435 -0.38269307 4.74524277 -0.16377251 7.625 1.6875 C10.00156941 4.00152811 11.58172986 6.00587415 13 9 C12.67 9.66 12.34 10.32 12 11 C9.125 10.375 9.125 10.375 6 9 C4.875 6 4.875 6 4 3 C1.99863756 1.57944932 1.99863756 1.57944932 0 1 C0 0.67 0 0.34 0 0 Z " fill="#541ED4" transform="translate(116,243)"/>
<path d="M0 0 C8.21071975 -0.66723682 15.36170046 0.9580028 23 4 C23.66 4.66 24.32 5.32 25 6 C16.40131562 5.38580826 8.30515248 3.19092979 0 1 C0 0.67 0 0.34 0 0 Z " fill="#E13F40" transform="translate(189,451)"/>
<path d="M0 0 C0.556875 0.70125 1.11375 1.4025 1.6875 2.125 C4.09124732 5.11344261 6.53810432 8.05940238 9 11 C8.67 11.66 8.34 12.32 8 13 C5.03 11.02 2.06 9.04 -1 7 C-0.67 4.69 -0.34 2.38 0 0 Z " fill="#ED3639" transform="translate(146,315)"/>
<path d="M0 0 C0.99 0.66 1.98 1.32 3 2 C3.66 2.33 4.32 2.66 5 3 C5 3.99 5 4.98 5 6 C4.34 6 3.68 6 3 6 C2.67 6.66 2.34 7.32 2 8 C1.67 7.34 1.34 6.68 1 6 C-2.2985139 6.72268235 -2.2985139 6.72268235 -3.6875 10.0625 C-4.120625 11.031875 -4.55375 12.00125 -5 13 C-5.66 13 -6.32 13 -7 13 C-5.58832253 7.73829306 -3.25149768 4.27828642 0 0 Z " fill="#E93738" transform="translate(74,134)"/>
<path d="M0 0 C2.27076842 -0.02699725 4.54162821 -0.04639453 6.8125 -0.0625 C8.07707031 -0.07410156 9.34164062 -0.08570313 10.64453125 -0.09765625 C14 0 14 0 17 1 C17 1.66 17 2.32 17 3 C15.10448978 3.05441656 13.2085208 3.09298035 11.3125 3.125 C10.25675781 3.14820313 9.20101562 3.17140625 8.11328125 3.1953125 C4.97748141 2.99858729 2.82354627 2.33057654 0 1 C0 0.67 0 0.34 0 0 Z " fill="#3A17D5" transform="translate(147,293)"/>
<path d="M0 0 C4.61513112 1.31860889 8.09897612 3.21355437 12 6 C7.49714836 7.50095055 3.49194504 6.20936982 -1 5 C-0.67 3.35 -0.34 1.7 0 0 Z " fill="#FB3237" transform="translate(347,64)"/>
<path d="M0 0 C-0.99 0.495 -0.99 0.495 -2 1 C-2.33 1.99 -2.66 2.98 -3 4 C-7.40993378 5.61697572 -11.48176567 4.80324166 -16 4 C-13.41588269 2.27725513 -11.45097344 1.31104478 -8.5625 0.3125 C-7.41974609 -0.09548828 -7.41974609 -0.09548828 -6.25390625 -0.51171875 C-3.78170279 -1.04729142 -2.37016716 -0.80445309 0 0 Z " fill="#F13432" transform="translate(193,49)"/>
<path d="M0 0 C0.33 0 0.66 0 1 0 C1.19421438 2.95803435 1.38066186 5.91620163 1.5625 8.875 C1.61857422 9.71675781 1.67464844 10.55851563 1.73242188 11.42578125 C1.78076172 12.23144531 1.82910156 13.03710938 1.87890625 13.8671875 C1.94960327 14.98262939 1.94960327 14.98262939 2.02172852 16.12060547 C2 18 2 18 1 20 C0.34 20 -0.32 20 -1 20 C-1.11381955 13.23405981 -0.88021369 6.71162938 0 0 Z " fill="#4319D4" transform="translate(169,220)"/>
<path d="M0 0 C0.33 0.99 0.66 1.98 1 3 C1.99 3.33 2.98 3.66 4 4 C3.3125 6.4375 3.3125 6.4375 2 9 C-0.625 9.8125 -0.625 9.8125 -3 10 C-2.49287967 6.28111761 -1.88391785 3.26545761 0 0 Z " fill="#F03634" transform="translate(58,163)"/>
<path d="M0 0 C1.13757948 4.55031791 0.4283779 6.63084406 -1 11 C-1.66 11 -2.32 11 -3 11 C-3.268125 11.598125 -3.53625 12.19625 -3.8125 12.8125 C-4.98493467 14.97224808 -6.19369282 16.35790256 -8 18 C-8.99 17.67 -9.98 17.34 -11 17 C-10.34 17 -9.68 17 -9 17 C-9 16.01 -9 15.02 -9 14 C-8.01 13.67 -7.02 13.34 -6 13 C-5.26676204 10.98491642 -5.26676204 10.98491642 -5 9 C-4.01 9 -3.02 9 -2 9 C-1.34 6.03 -0.68 3.06 0 0 Z " fill="#5C27BD" transform="translate(130,271)"/>
<path d="M0 0 C0.66 0 1.32 0 2 0 C1.39644592 3.85025879 0.23227397 6.86101159 -1.5625 10.3125 C-2.01753906 11.19550781 -2.47257812 12.07851563 -2.94140625 12.98828125 C-3.29074219 13.65214844 -3.64007813 14.31601562 -4 15 C-4.33 15 -4.66 15 -5 15 C-5.33 13.02 -5.66 11.04 -6 9 C-5.38125 8.814375 -4.7625 8.62875 -4.125 8.4375 C-0.94397134 6.28562767 -0.80548053 3.62466237 0 0 Z " fill="#F33434" transform="translate(441,332)"/>
<path d="M0 0 C-0.99 0.495 -0.99 0.495 -2 1 C-2 1.99 -2 2.98 -2 4 C-3.11375 3.979375 -4.2275 3.95875 -5.375 3.9375 C-8.83215921 3.73619282 -8.83215921 3.73619282 -11 5 C-11 3.35 -11 1.7 -11 0 C-3.375 -1.125 -3.375 -1.125 0 0 Z " fill="#4621DF" transform="translate(217,288)"/>
<path d="M0 0 C3.5219721 -0.08004482 6.61981469 -0.04005702 10 1 C10.12375 1.763125 10.2475 2.52625 10.375 3.3125 C10.88102792 6.20267136 10.88102792 6.20267136 13 9 C9.91220974 7.53400783 7.09532795 5.82973607 4.25 3.9375 C3.45078125 3.41027344 2.6515625 2.88304687 1.828125 2.33984375 C1.22484375 1.89769531 0.6215625 1.45554688 0 1 C0 0.67 0 0.34 0 0 Z " fill="#EA3A38" transform="translate(122,179)"/>
<path d="M0 0 C5.50719921 3.90510489 10.35827355 8.09717644 15 13 C13.02 13.99 13.02 13.99 11 15 C10.7525 14.236875 10.505 13.47375 10.25 12.6875 C8.8707363 9.72208305 7.80742685 8.61639727 5 7 C4.01 7 3.02 7 2 7 C1.34 4.69 0.68 2.38 0 0 Z " fill="#E1393C" transform="translate(384,88)"/>
<path d="M0 0 C1.98 0 3.96 0 6 0 C6 2.31 6 4.62 6 7 C3.69 6.67 1.38 6.34 -1 6 C-0.34 5.67 0.32 5.34 1 5 C0.67 3.35 0.34 1.7 0 0 Z " fill="#5D39DD" transform="translate(200,288)"/>
<path d="M0 0 C0.66 0.66 1.32 1.32 2 2 C1.34 3.98 0.68 5.96 0 8 C0.66 8.33 1.32 8.66 2 9 C1.34 10.32 0.68 11.64 0 13 C-0.67119549 11.5437455 -1.33681807 10.08492133 -2 8.625 C-2.37125 7.81289062 -2.7425 7.00078125 -3.125 6.1640625 C-4 4 -4 4 -4 2 C-2.68 1.34 -1.36 0.68 0 0 Z " fill="#EF3837" transform="translate(364,194)"/>
<path d="M0 0 C2.31309705 0.11341637 4.62550185 0.24103807 6.9375 0.375 C8.86916016 0.47941406 8.86916016 0.47941406 10.83984375 0.5859375 C12.40412109 0.79089844 12.40412109 0.79089844 14 1 C14.33 1.66 14.66 2.32 15 3 C10.05 3 5.1 3 0 3 C0 2.01 0 1.02 0 0 Z " fill="#5930CE" transform="translate(147,217)"/>
<path d="M0 0 C1.65 0.33 3.3 0.66 5 1 C2.10181338 3.29158942 -0.83140544 5.07862366 -4.125 6.75 C-4.99382812 7.19859375 -5.86265625 7.6471875 -6.7578125 8.109375 C-7.49773437 8.40328125 -8.23765625 8.6971875 -9 9 C-9.66 8.67 -10.32 8.34 -11 8 C-10.2890625 6.046875 -10.2890625 6.046875 -9 4 C-6.8359375 3.390625 -6.8359375 3.390625 -4.375 3.25 C-3.55773437 3.19328125 -2.74046875 3.1365625 -1.8984375 3.078125 C-1.27195313 3.05234375 -0.64546875 3.0265625 0 3 C0 2.01 0 1.02 0 0 Z " fill="#E23E39" transform="translate(197,136)"/>
<path d="M0 0 C0.99 0.33 1.98 0.66 3 1 C2.57847656 1.45890625 2.15695313 1.9178125 1.72265625 2.390625 C1.17480469 3.00421875 0.62695312 3.6178125 0.0625 4.25 C-0.48277344 4.85328125 -1.02804688 5.4565625 -1.58984375 6.078125 C-3.06212799 8.08467305 -3.57529189 9.57002449 -4 12 C-4.99 11.67 -5.98 11.34 -7 11 C-7 9.68 -7 8.36 -7 7 C-6.01 7 -5.02 7 -4 7 C-3.67 5.68 -3.34 4.36 -3 3 C-2.34 3 -1.68 3 -1 3 C-0.67 2.01 -0.34 1.02 0 0 Z " fill="#5E3AC8" transform="translate(125,230)"/>
<path d="M0 0 C-0.6796875 1.953125 -0.6796875 1.953125 -2 4 C-4.3828125 4.609375 -4.3828125 4.609375 -7.125 4.75 C-8.03507813 4.80671875 -8.94515625 4.8634375 -9.8828125 4.921875 C-10.58148438 4.94765625 -11.28015625 4.9734375 -12 5 C-4.28571429 -1.42857143 -4.28571429 -1.42857143 0 0 Z " fill="#E9383B" transform="translate(150,67)"/>
<path d="M0 0 C5.11723176 3.19826985 9.52692892 6.95834187 14 11 C11 12 11 12 8.375 11.3125 C7.59125 10.879375 6.8075 10.44625 6 10 C5.64587656 8.67203709 5.31478446 7.33783393 5 6 C3.35704805 4.63755204 1.69175663 3.30135125 0 2 C0 1.34 0 0.68 0 0 Z " fill="#E23C3D" transform="translate(162,336)"/>
<path d="M0 0 C0.66 0.33 1.32 0.66 2 1 C2 1.99 2 2.98 2 4 C2.99 4.33 3.98 4.66 5 5 C5 5.66 5 6.32 5 7 C6.32 7.33 7.64 7.66 9 8 C7.68 8 6.36 8 5 8 C4.67 8.66 4.34 9.32 4 10 C2.02 7.36 0.04 4.72 -2 2 C-1.34 2 -0.68 2 0 2 C0 1.34 0 0.68 0 0 Z " fill="#4E24DD" transform="translate(187,277)"/>
<path d="M0 0 C0 0.66 0 1.32 0 2 C-0.763125 2.28875 -1.52625 2.5775 -2.3125 2.875 C-5.15029308 3.96269013 -5.15029308 3.96269013 -8 6 C-11.6875 5.125 -11.6875 5.125 -15 4 C-15 3.67 -15 3.34 -15 3 C-12.87562952 2.49733206 -10.75048274 1.9979439 -8.625 1.5 C-7.44164062 1.2215625 -6.25828125 0.943125 -5.0390625 0.65625 C-2 0 -2 0 0 0 Z " fill="#EA3D3E" transform="translate(286,367)"/>
<path d="M0 0 C4.47238653 1.41807378 8.71146306 3.11304374 13 5 C11 6 9 7 7 8 C7 6.68 7 5.36 7 4 C5.02 4.33 3.04 4.66 1 5 C0.67 3.35 0.34 1.7 0 0 Z " fill="#E63D3C" transform="translate(194,359)"/>
<path d="M0 0 C0.66 0 1.32 0 2 0 C2.66 1.98 3.32 3.96 4 6 C1.6875 8.0625 1.6875 8.0625 -1 10 C-1.99 9.67 -2.98 9.34 -4 9 C-3.525625 8.62875 -3.05125 8.2575 -2.5625 7.875 C-0.47794198 5.37353038 -0.35378509 3.18406582 0 0 Z " fill="#4F20CB" transform="translate(97,261)"/>
<path d="M0 0 C1.48280196 0.78483659 2.9611498 1.57809334 4.4375 2.375 C5.67306641 3.03628906 5.67306641 3.03628906 6.93359375 3.7109375 C9 5 9 5 10 7 C7.36 7 4.72 7 2 7 C2 5.35 2 3.7 2 2 C1.34 2 0.68 2 0 2 C0 1.34 0 0.68 0 0 Z " fill="#E83736" transform="translate(360,71)"/>
<path d="M0 0 C0.33 0 0.66 0 1 0 C1 4.29 1 8.58 1 13 C-0.65 13 -2.3 13 -4 13 C-3.625 10.5625 -3.625 10.5625 -3 8 C-2.34 7.67 -1.68 7.34 -1 7 C-0.59270772 4.67843403 -0.25561323 2.3431213 0 0 Z " fill="#5C25CA" transform="translate(206,250)"/>
<path d="M0 0 C0.33 0.66 0.66 1.32 1 2 C0.26418258 3.1549921 -0.48930039 4.29874185 -1.25 5.4375 C-1.66765625 6.07558594 -2.0853125 6.71367187 -2.515625 7.37109375 C-4.27248877 9.29902057 -5.46089803 9.61479436 -8 10 C-6.5682479 4.98886765 -4.01554307 3.05530451 0 0 Z " fill="#5623CB" transform="translate(191,223)"/>
<path d="M0 0 C2 1 2 1 2.6875 3 C2.790625 3.66 2.89375 4.32 3 5 C2.67 5.33 2.34 5.66 2 6 C1.76807135 7.51469448 1.58784762 9.03754562 1.4375 10.5625 C1.35371094 11.38878906 1.26992187 12.21507812 1.18359375 13.06640625 C1.12300781 13.70449219 1.06242187 14.34257812 1 15 C1.99 15 2.98 15 4 15 C4 15.66 4 16.32 4 17 C2.68 16.67 1.36 16.34 0 16 C-1.06384343 10.54780241 -1.78141946 5.34425837 0 0 Z " fill="#612DE5" transform="translate(68,215)"/>
<path d="M0 0 C0.66 0.99 1.32 1.98 2 3 C-1.78713193 4.26237731 -4.25651933 3.67558873 -8.1875 3.0625 C-9.45980469 2.86785156 -10.73210937 2.67320312 -12.04296875 2.47265625 C-13.01878906 2.31667969 -13.99460938 2.16070312 -15 2 C-15 1.67 -15 1.34 -15 1 C-10.05 0.67 -5.1 0.34 0 0 Z " fill="#2E0CEF" transform="translate(166,216)"/>
<path d="M0 0 C0 0.99 0 1.98 0 3 C0.66 3 1.32 3 2 3 C2 3.66 2 4.32 2 5 C-2.62 4.01 -7.24 3.02 -12 2 C-12 1.67 -12 1.34 -12 1 C-10.37512529 0.83211627 -8.75009558 0.66573213 -7.125 0.5 C-6.22007813 0.4071875 -5.31515625 0.314375 -4.3828125 0.21875 C-2 0 -2 0 0 0 Z " fill="#E63C3D" transform="translate(110,170)"/>
<path d="M0 0 C0 3 0 3 -1 5 C-0.34 5.33 0.32 5.66 1 6 C-1.30368736 7.06652192 -3.64018187 8.06421005 -6 9 C-6.66 8.67 -7.32 8.34 -8 8 C-5.36 5.36 -2.72 2.72 0 0 Z " fill="#E43436" transform="translate(110,92)"/>
<path d="M0 0 C-2.93023445 2.93023445 -9.66661779 2.98830238 -13.5625 3.125 C-14.366875 3.08375 -15.17125 3.0425 -16 3 C-16 2.34 -16 1.68 -16 1 C-14.0852312 0.63571223 -12.16807707 0.28394694 -10.25 -0.0625 C-9.18265625 -0.25972656 -8.1153125 -0.45695312 -7.015625 -0.66015625 C-4.25228095 -0.97156937 -2.59053383 -0.8991416 0 0 Z " fill="#E23C3F" transform="translate(226,42)"/>
<path d="M0 0 C0.66 0.33 1.32 0.66 2 1 C1.4375 2.875 1.4375 2.875 0 5 C-3.625 6.25 -3.625 6.25 -7 7 C-7.66 6.34 -8.32 5.68 -9 5 C-7.54735962 4.1361871 -6.0876837 3.28419546 -4.625 2.4375 C-3.40683594 1.72400391 -3.40683594 1.72400391 -2.1640625 0.99609375 C-1.44992187 0.66738281 -0.73578125 0.33867187 0 0 Z " fill="#E93939" transform="translate(315,353)"/>
<path d="M0 0 C3.72 1.44 3.72 1.44 4.8125 3.625 C5.09322871 7.18089699 4.52888827 10.47407819 4 14 C1.87276922 10.45461536 1.51681101 7.06065791 1 3 C0.67 2.01 0.34 1.02 0 0 Z " fill="#582DC5" transform="translate(225,243)"/>
<path d="M0 0 C0 0.66 0 1.32 0 2 C-1.85625 1.938125 -1.85625 1.938125 -3.75 1.875 C-7.01637962 1.86341709 -9.2146947 2.1431298 -12 4 C-12 2.68 -12 1.36 -12 0 C-7.74433453 -1.16063604 -4.3164922 -0.76173392 0 0 Z " fill="#5729CD" transform="translate(223,239)"/>
<path d="M0 0 C0.66 0.33 1.32 0.66 2 1 C0.95285076 2.32477959 -0.11344669 3.63443746 -1.1875 4.9375 C-1.77917969 5.66839844 -2.37085938 6.39929688 -2.98046875 7.15234375 C-5.32505203 9.29738803 -6.88391498 9.66094412 -10 10 C-6.66666667 6.66666667 -3.33333333 3.33333333 0 0 Z " fill="#E13B3B" transform="translate(334,338)"/>
<path d="M0 0 C1.65 0 3.3 0 5 0 C5.33 1.32 5.66 2.64 6 4 C6.66 4 7.32 4 8 4 C7.34 5.32 6.68 6.64 6 8 C4.99403703 7.0479279 3.99538437 6.08812654 3 5.125 C2.443125 4.59132812 1.88625 4.05765625 1.3125 3.5078125 C0 2 0 2 0 0 Z " fill="#E73C3B" transform="translate(338,164)"/>
<path d="M0 0 C2.74683359 2.11294891 3.46390613 3.60018425 4.4375 6.875 C0.00291027 5.4812718 -2.43628374 3.26917765 -5.5625 -0.125 C-2.5625 -1.125 -2.5625 -1.125 0 0 Z " fill="#ED393B" transform="translate(322.5625,147.125)"/>
<path d="M0 0 C0.66 0.33 1.32 0.66 2 1 C0.02 3.97 0.02 3.97 -2 7 C-4.475 6.01 -4.475 6.01 -7 5 C-2.25 1.125 -2.25 1.125 0 0 Z " fill="#ED3737" transform="translate(126,304)"/>
<path d="M0 0 C0.33 0 0.66 0 1 0 C0.67 3.96 0.34 7.92 0 12 C-2 10 -2 10 -2.265625 8.125 C-2.26046875 7.42375 -2.2553125 6.7225 -2.25 6 C-2.25515625 5.29875 -2.2603125 4.5975 -2.265625 3.875 C-2 2 -2 2 0 0 Z " fill="#401BD8" transform="translate(179,241)"/>
<path d="M0 0 C0.99 0.33 1.98 0.66 3 1 C3.33 4.3 3.66 7.6 4 11 C3.34 11 2.68 11 2 11 C0.80712589 7.12315913 0 4.08378077 0 0 Z " fill="#EF3A3B" transform="translate(369,220)"/>
<path d="M0 0 C5.28137429 0.51525603 8.57221156 2.25477117 13 5 C11.68 5.33 10.36 5.66 9 6 C9 5.34 9 4.68 9 4 C6.69 4 4.38 4 2 4 C2 3.01 2 2.02 2 1 C1.34 0.67 0.68 0.34 0 0 Z " fill="#5924C2" transform="translate(108,195)"/>
<path d="M0 0 C0.33 0.66 0.66 1.32 1 2 C2.98 1.67 4.96 1.34 7 1 C8.32 2.65 9.64 4.3 11 6 C9.22739369 5.54857225 7.4569632 5.08859477 5.6875 4.625 C4.20830078 4.24214844 4.20830078 4.24214844 2.69921875 3.8515625 C0 3 0 3 -3 1 C-2.01 0.67 -1.02 0.34 0 0 Z " fill="#E93A3B" transform="translate(287,131)"/>
<path d="M0 0 C0.66 0 1.32 0 2 0 C2 0.66 2 1.32 2 2 C2.66 2 3.32 2 4 2 C4 2.66 4 3.32 4 4 C4.66 4.33 5.32 4.66 6 5 C6 6.98 6 8.96 6 11 C0 3.28571429 0 3.28571429 0 0 Z " fill="#E23F3F" transform="translate(63,346)"/>
<path d="M0 0 C5.94 1.485 5.94 1.485 12 3 C12 3.33 12 3.66 12 4 C10.58376784 4.05447047 9.16691809 4.09300508 7.75 4.125 C6.96109375 4.14820313 6.1721875 4.17140625 5.359375 4.1953125 C2.79268059 3.9828378 1.2083933 3.28654105 -1 2 C-0.67 1.34 -0.34 0.68 0 0 Z " fill="#5B249C" transform="translate(140,292)"/>
<path d="M0 0 C2.45840605 -0.02691685 4.91651882 -0.04679802 7.375 -0.0625 C8.07367188 -0.07087891 8.77234375 -0.07925781 9.4921875 -0.08789062 C14.7734375 -0.11328125 14.7734375 -0.11328125 17 1 C17 1.66 17 2.32 17 3 C11.39 2.34 5.78 1.68 0 1 C0 0.67 0 0.34 0 0 Z " fill="#571DC1" transform="translate(53,293)"/>
<path d="M0 0 C0.99 0.33 1.98 0.66 3 1 C3 2.98 3 4.96 3 7 C1.02 6.01 -0.96 5.02 -3 4 C-2.01 2.68 -1.02 1.36 0 0 Z " fill="#5E2ED8" transform="translate(227,284)"/>
<path d="M0 0 C2.31 0 4.62 0 7 0 C6.67 0.99 6.34 1.98 6 3 C6.99 3 7.98 3 9 3 C9.33 3.99 9.66 4.98 10 6 C6.00499382 4.6302836 3.19990508 2.74277578 0 0 Z " fill="#DB403E" transform="translate(129,422)"/>
<path d="M0 0 C0.66 0 1.32 0 2 0 C1.49202991 4.3177458 0.80317221 8.03302114 -1 12 C-1.33 12 -1.66 12 -2 12 C-2.21278058 7.53160785 -1.59138085 4.17737474 0 0 Z " fill="#D64342" transform="translate(449,310)"/>
<path d="M0 0 C1.62580966 0.11398665 3.25067157 0.24155659 4.875 0.375 C5.77992188 0.44460938 6.68484375 0.51421875 7.6171875 0.5859375 C10 1 10 1 12 3 C11.67 3.66 11.34 4.32 11 5 C10.01 4.67 9.02 4.34 8 4 C8 3.34 8 2.68 8 2 C7.05125 2.04125 6.1025 2.0825 5.125 2.125 C2 2 2 2 0 0 Z " fill="#440DE5" transform="translate(194,293)"/>
<path d="M0 0 C0.66 0 1.32 0 2 0 C3.9451 2.91765 4.45276317 4.62537285 5 8 C4.34 8 3.68 8 3 8 C2.67 7.34 2.34 6.68 2 6 C1.34 6 0.68 6 0 6 C0 4.02 0 2.04 0 0 Z " fill="#5524D7" transform="translate(227,258)"/>
<path d="M0 0 C-3.64116773 3.33773709 -7.28607242 3.97864902 -12 5 C-12 4.34 -12 3.68 -12 3 C-4.71428571 -0.42857143 -4.71428571 -0.42857143 0 0 Z " fill="#DB403E" transform="translate(332,443)"/>
<path d="M0 0 C0.66666667 2.66666667 1.33333333 5.33333333 2 8 C0.02 8.99 0.02 8.99 -2 10 C-3.39195915 5.82412255 -1.82323219 3.86525224 0 0 Z " fill="#ED3839" transform="translate(364,293)"/>
<path d="M0 0 C-0.25 1.875 -0.25 1.875 -1 4 C-3.0625 5.25 -3.0625 5.25 -5 6 C-5.33 4.35 -5.66 2.7 -6 1 C-3.92446352 0.4465236 -2.15634036 0 0 0 Z " fill="#653FD8" transform="translate(146,214)"/>
<path d="M0 0 C0.66 0.33 1.32 0.66 2 1 C1.02471263 2.33617352 0.04466681 3.6688751 -0.9375 5 C-1.48277344 5.7425 -2.02804687 6.485 -2.58984375 7.25 C-3.28787109 8.11625 -3.28787109 8.11625 -4 9 C-4.33 9 -4.66 9 -5 9 C-5 7.35 -5 5.7 -5 4 C-4.360625 3.71125 -3.72125 3.4225 -3.0625 3.125 C-0.84793921 2.17176549 -0.84793921 2.17176549 0 0 Z " fill="#E13A3D" transform="translate(415,377)"/>
<path d="M0 0 C0.33 0 0.66 0 1 0 C1.08121924 1.60332791 1.13929134 3.20784026 1.1875 4.8125 C1.23970703 6.15248047 1.23970703 6.15248047 1.29296875 7.51953125 C0.95081002 10.41647515 0.24606427 11.22555028 -2 13 C-1.48041715 8.62065881 -0.94324258 4.31196609 0 0 Z " fill="#E53D40" transform="translate(370,271)"/>
<path d="M0 0 C1.64936913 0.78427352 3.29441127 1.57765259 4.9375 2.375 C5.85402344 2.81585938 6.77054687 3.25671875 7.71484375 3.7109375 C10 5 10 5 11 7 C6.4923533 6.46968862 3.58045212 4.74778884 0 2 C0 1.34 0 0.68 0 0 Z " fill="#DA413F" transform="translate(348,64)"/>
<path d="M0 0 C1.65 0 3.3 0 5 0 C5 0.66 5 1.32 5 2 C4.01 2.33 3.02 2.66 2 3 C1.67 3.99 1.34 4.98 1 6 C0.34 6 -0.32 6 -1 6 C-0.67 4.02 -0.34 2.04 0 0 Z " fill="#6236D1" transform="translate(70,252)"/>
<path d="M0 0 C3.36591866 1.44253657 5.51047079 3.33264727 8 6 C6.68 6 5.36 6 4 6 C3.67 5.34 3.34 4.68 3 4 C2.01 3.67 1.02 3.34 0 3 C0 2.01 0 1.02 0 0 Z " fill="#E4393B" transform="translate(370,78)"/>
<path d="M0 0 C-0.33 1.32 -0.66 2.64 -1 4 C-2.98 4.33 -4.96 4.66 -7 5 C-2.25 0 -2.25 0 0 0 Z " fill="#E6393F" transform="translate(324,348)"/>
<path d="M0 0 C0.66 0 1.32 0 2 0 C1.46930939 3.82097239 0.50298434 6.06171403 -2 9 C-1.125 1.125 -1.125 1.125 0 0 Z " fill="#E13D3E" transform="translate(441,332)"/>
<path d="M0 0 C2.31 1.98 4.62 3.96 7 6 C6.67 6.66 6.34 7.32 6 8 C3 6.25 3 6.25 0 4 C0 2.68 0 1.36 0 0 Z " fill="#DE3C3E" transform="translate(155,328)"/>
<path d="M0 0 C0.33 1.32 0.66 2.64 1 4 C0.34 4 -0.32 4 -1 4 C-1.12375 4.639375 -1.2475 5.27875 -1.375 5.9375 C-1.58125 6.618125 -1.7875 7.29875 -2 8 C-2.99 8.495 -2.99 8.495 -4 9 C-4 7.68 -4 6.36 -4 5 C-3.34 5 -2.68 5 -2 5 C-1.34 3.35 -0.68 1.7 0 0 Z " fill="#581FDC" transform="translate(126,226)"/>
<path d="M0 0 C1.65 0 3.3 0 5 0 C5 2.31 5 4.62 5 7 C4.67 5.68 4.34 4.36 4 3 C2.68 2.67 1.36 2.34 0 2 C0 1.34 0 0.68 0 0 Z " fill="#5227C2" transform="translate(91,218)"/>
<path d="M0 0 C1.32 1.65 2.64 3.3 4 5 C3.01 5.495 3.01 5.495 2 6 C-0.625 5.0625 -0.625 5.0625 -3 4 C-2.67 3.01 -2.34 2.02 -2 1 C-1.34 0.67 -0.68 0.34 0 0 Z " fill="#E23D3A" transform="translate(178,443)"/>
<path d="M0 0 C-4.75 4 -4.75 4 -7 4 C-6.6875 2.0625 -6.6875 2.0625 -6 0 C-3 -1 -3 -1 0 0 Z " fill="#E53835" transform="translate(374,420)"/>
<path d="M0 0 C-0.99 1.485 -0.99 1.485 -2 3 C-3.9375 2.625 -3.9375 2.625 -6 2 C-6.33 1.34 -6.66 0.68 -7 0 C-3.86650268 -1.04449911 -3.01031744 -0.93423645 0 0 Z " fill="#DE4052" transform="translate(144,190)"/>
<path d="M0 0 C2 0 2 0 4.1875 1.75 C5.0846875 2.86375 5.0846875 2.86375 6 4 C5.61328125 6.140625 5.61328125 6.140625 5 8 C4.16382818 6.8562364 3.33113541 5.70992861 2.5 4.5625 C2.0359375 3.92441406 1.571875 3.28632813 1.09375 2.62890625 C0 1 0 1 0 0 Z " fill="#E5393C" transform="translate(345,172)"/>
<path d="M0 0 C0.33 0.66 0.66 1.32 1 2 C0.06421005 4.35981813 -0.93347808 6.69631264 -2 9 C-2.66 9 -3.32 9 -4 9 C-2.94124926 5.59687262 -1.99097846 2.98646769 0 0 Z " fill="#DA3C3F" transform="translate(65,149)"/>
<path d="M0 0 C0 0.66 0 1.32 0 2 C0.66 2.33 1.32 2.66 2 3 C2 3.66 2 4.32 2 5 C-3.75 3.25 -3.75 3.25 -6 1 C-3.92446352 0.4465236 -2.15634036 0 0 0 Z " fill="#E13C3D" transform="translate(312,140)"/>
<path d="M0 0 C-4.30769231 3.07692308 -4.30769231 3.07692308 -7.8125 2.6875 C-8.534375 2.460625 -9.25625 2.23375 -10 2 C-6.19832777 -0.53444815 -4.31588991 -1.33941411 0 0 Z " fill="#E83A3A" transform="translate(193,49)"/>
<path d="" fill="#800080" transform="translate(0,0)"/>
</svg>
